<?xml version="1.0" standalone="no"?>
<!DOCTYPE svg PUBLIC "-//W3C//DTD SVG 20010904//EN"
 "http://www.w3.org/TR/2001/REC-SVG-20010904/DTD/svg10.dtd">
<svg version="1.0" xmlns="http://www.w3.org/2000/svg"
 width="854.000000pt" height="398.000000pt" viewBox="0 0 854.000000 398.000000"
 preserveAspectRatio="xMidYMid meet">
<metadata>
Created by potrace 1.16, written by Peter Selinger 2001-2019
</metadata>
<g transform="translate(0.000000,398.000000) scale(0.100000,-0.100000)"
fill="white" stroke="none">
<path d="M742 3968 c-7 -7 -12 -25 -12 -40 0 -28 -1 -28 -60 -28 l-60 0 0
-399 0 -400 -222 -3 c-207 -3 -226 -5 -264 -25 -23 -12 -53 -36 -68 -54 -59
-70 -56 9 -56 -1346 0 -1349 -3 -1272 56 -1342 47 -56 114 -81 217 -81 l87 0
0 -60 c0 -52 2 -60 19 -60 13 0 21 -10 25 -33 10 -54 68 -97 129 -97 49 0 99
37 117 88 11 33 19 42 37 42 21 0 23 4 23 60 l0 60 370 0 370 0 0 -60 c0 -57
1 -60 25 -60 17 0 25 -6 25 -17 0 -53 70 -113 130 -113 60 0 130 60 130 113 0
10 8 17 20 17 18 0 20 7 20 60 l0 60 88 0 c101 0 169 25 215 80 60 71 57 -10
57 1347 l0 1244 -25 49 c-14 27 -41 61 -60 76 -63 48 -94 53 -312 54 l-203 0
0 400 0 400 -65 0 c-59 0 -65 2 -65 21 0 11 -5 29 -10 40 -10 18 -25 19 -338
19 -242 0 -331 -3 -340 -12z m-12 -166 c0 -41 11 -42 346 -42 280 0 325 2 338
16 9 8 16 22 16 30 0 8 10 14 25 14 l25 0 0 -360 0 -360 -400 0 -400 0 0 360
0 360 25 0 c17 0 25 -5 25 -18z m-105 -1397 l25 -24 0 -750 0 -750 -22 -21
c-32 -29 -92 -27 -123 5 l-25 24 0 741 0 742 29 29 c38 37 82 39 116 4z m519
-6 l26 -31 0 -739 0 -740 -25 -24 c-18 -18 -35 -25 -65 -25 -51 0 -77 25 -85
82 -3 24 -5 362 -3 751 l3 709 28 24 c41 35 88 32 121 -7z m507 2 l29 -29 0
-742 0 -741 -25 -24 c-34 -35 -93 -34 -126 1 l-24 26 0 745 0 745 28 24 c39
33 81 31 118 -5z"/>
<path d="M5700 3721 l-94 -59 -43 -163 c-23 -90 -39 -166 -35 -170 4 -3 82
-25 174 -48 l166 -42 93 55 c108 64 114 56 -72 101 -100 24 -115 31 -103 43 8
7 14 17 14 21 0 16 -30 33 -50 28 -26 -7 -26 -7 15 153 19 74 33 136 31 137
-1 2 -45 -24 -96 -56z"/>
<path d="M6781 3759 c-96 -7 -127 -21 -116 -51 4 -9 12 -18 18 -21 13 -5 215
10 235 18 29 11 5 67 -27 64 -9 -1 -58 -5 -110 -10z"/>
<path d="M7065 3749 c-31 -33 -4 -46 120 -56 61 -6 116 -8 123 -5 7 3 12 16
10 30 -4 31 -21 37 -144 45 -83 6 -93 5 -109 -14z"/>
<path d="M6405 3707 c-108 -21 -125 -29 -125 -59 0 -29 23 -32 123 -13 119 23
137 30 137 54 0 36 -29 40 -135 18z"/>
<path d="M7452 3707 c-20 -23 -3 -46 42 -57 22 -6 74 -21 114 -32 68 -20 74
-20 90 -4 27 26 4 48 -79 74 -103 32 -152 38 -167 19z"/>
<path d="M6011 3600 c-46 -16 -89 -35 -97 -41 -21 -17 -17 -38 9 -49 17 -8 45
-2 127 28 95 34 105 39 105 62 0 36 -41 36 -144 0z"/>
<path d="M7822 3578 c-22 -22 -13 -37 46 -74 31 -20 76 -52 100 -71 48 -39 82
-38 82 1 0 26 -50 72 -136 125 -56 34 -74 37 -92 19z"/>
<path d="M8129 3294 c-10 -13 -10 -19 2 -38 8 -12 38 -61 68 -109 42 -68 59
-87 77 -87 39 0 39 34 1 103 -77 136 -115 170 -148 131z"/>
<path d="M6299 3064 c-8 -10 -15 -67 -20 -168 -8 -164 -10 -189 -40 -371 -28
-167 -64 -340 -100 -475 -25 -93 -28 -119 -19 -139 20 -44 68 -97 105 -117
l37 -19 19 23 c24 30 76 193 129 402 45 178 86 434 97 596 5 92 4 106 -16 147
-30 62 -112 137 -149 137 -16 0 -35 -7 -43 -16z"/>
<path d="M2528 2949 c-31 -4 -73 -15 -92 -23 -32 -13 -36 -19 -36 -51 0 -46
20 -85 62 -120 32 -27 33 -27 135 -21 l103 7 0 -24 c0 -44 -32 -212 -75 -397
-64 -273 -79 -352 -72 -382 10 -38 83 -127 115 -139 23 -9 30 -7 44 11 22 27
30 57 73 260 18 91 59 267 89 391 31 124 56 239 56 254 l0 27 168 -7 c162 -7
168 -6 195 15 78 61 -14 160 -182 196 -74 15 -483 18 -583 3z"/>
<path d="M8341 2923 l-23 -19 32 -104 c18 -58 34 -110 35 -117 2 -6 13 -16 24
-22 28 -15 53 11 45 47 -18 83 -58 199 -73 215 -17 17 -18 17 -40 0z"/>
<path d="M3617 2616 c-32 -14 -77 -37 -100 -52 -32 -21 -42 -24 -46 -13 -2 8
-19 29 -37 47 -37 37 -81 43 -109 12 -15 -17 -18 -43 -19 -232 l-1 -213 -37
-108 c-21 -59 -38 -122 -38 -140 1 -42 33 -113 58 -126 34 -18 77 -13 100 12
35 38 80 150 117 293 20 75 45 154 56 175 29 59 85 115 164 169 38 26 77 56
86 66 86 98 -44 171 -194 110z"/>
<path d="M4218 2616 c-73 -30 -126 -72 -205 -165 -74 -87 -110 -146 -152 -252
-43 -108 -55 -168 -41 -218 13 -48 97 -144 151 -172 80 -40 172 -15 275 75
l52 45 16 -44 c20 -51 67 -95 101 -95 33 0 52 35 65 126 6 43 23 127 37 186
24 96 25 108 12 129 -14 20 -14 26 3 60 27 57 42 122 34 154 -10 38 -120 146
-177 173 -58 28 -100 27 -171 -2z m138 -241 c5 -26 2 -41 -10 -54 -9 -10 -16
-24 -16 -33 0 -33 -63 -138 -108 -180 -55 -52 -124 -93 -169 -103 -41 -8 -42
6 -10 85 58 141 217 320 283 320 19 0 24 -7 30 -35z"/>
<path d="M4655 2610 c-15 -17 -17 -31 -12 -95 12 -142 111 -557 152 -635 18
-35 100 -90 134 -90 36 0 96 70 168 196 112 197 233 479 233 542 0 40 -31 76
-80 92 -36 12 -45 12 -68 -2 -36 -22 -50 -51 -172 -346 -34 -84 -65 -151 -67
-148 -2 2 -8 70 -13 152 -8 135 -11 152 -40 210 -56 115 -183 182 -235 124z"/>
<path d="M5687 2615 c-156 -43 -320 -249 -363 -456 -18 -86 -12 -143 21 -209
31 -62 79 -107 145 -139 47 -22 68 -26 145 -25 107 0 178 20 256 69 67 41 98
93 80 131 -15 34 -48 38 -137 14 -97 -25 -251 -37 -281 -22 -24 13 -32 47 -24
99 l6 37 145 1 c144 0 146 0 218 34 45 21 87 50 112 77 37 40 40 48 40 101 0
77 -34 148 -102 217 -80 79 -155 100 -261 71z m124 -218 c22 -14 35 -32 37
-49 5 -40 -41 -60 -152 -66 l-90 -5 34 43 c35 45 105 100 125 100 7 0 27 -10
46 -23z"/>
<path d="M8437 2509 c-15 -9 -17 -27 -17 -132 0 -130 5 -147 46 -147 28 0 34
17 34 98 0 152 -19 205 -63 181z"/>
<path d="M8418 2078 c-16 -13 -70 -190 -72 -238 -1 -20 4 -26 27 -28 24 -3 30
2 43 34 32 76 60 203 48 221 -14 23 -27 26 -46 11z"/>
<path d="M8273 1683 c-7 -3 -37 -39 -66 -81 -30 -42 -61 -83 -70 -91 -27 -22
-22 -59 10 -67 30 -8 50 11 130 127 32 48 43 73 39 87 -7 22 -24 32 -43 25z"/>
<path d="M3063 1476 c-200 -66 -336 -291 -320 -532 18 -263 186 -437 422 -437
86 0 134 14 191 58 l31 24 18 -39 18 -40 139 0 138 0 0 170 0 170 30 0 31 0
-3 78 -3 77 -225 0 -225 0 -3 -77 -3 -78 46 0 c39 0 45 -3 45 -21 0 -71 -105
-112 -193 -75 -94 40 -139 177 -102 313 30 112 116 180 202 159 41 -11 91 -68
105 -120 l12 -46 123 0 123 0 -2 203 -3 202 -102 3 -102 3 -12 -43 c-7 -24
-13 -44 -14 -46 -1 -1 -17 12 -36 29 -19 18 -54 41 -78 52 -57 25 -190 32
-248 13z"/>
<path d="M7885 1292 c-102 -70 -119 -93 -82 -116 20 -13 60 7 165 81 54 38 63
49 60 71 -5 44 -36 37 -143 -36z"/>
<path d="M5028 1200 c-20 -11 -47 -32 -59 -48 l-24 -28 -17 38 -17 38 -131 0
-130 0 0 -95 c0 -95 0 -95 25 -95 l25 0 0 -149 c0 -148 0 -150 -22 -153 -22
-3 -23 -8 -26 -100 l-3 -98 191 0 190 0 0 100 0 100 -31 0 -31 0 4 99 c3 88 6
102 26 124 24 25 88 47 136 47 l26 0 0 120 0 120 -47 0 c-27 -1 -64 -9 -85
-20z"/>
<path d="M6555 1207 c-116 -45 -185 -145 -185 -270 0 -109 62 -202 169 -251
63 -29 170 -28 227 2 130 67 189 199 150 334 -19 67 -91 152 -151 179 -46 21
-162 24 -210 6z"/>
<path d="M3787 1193 c-4 -3 -7 -46 -7 -95 l0 -88 29 0 28 0 6 -167 c5 -174 13
-210 56 -265 33 -42 81 -66 153 -78 93 -14 154 0 211 51 l45 39 16 -40 16 -41
133 3 132 3 0 95 0 95 -32 3 -33 3 0 245 0 244 -182 -2 -183 -3 0 -90 0 -90
48 -3 47 -3 0 -102 c0 -159 -18 -197 -89 -197 -51 0 -56 20 -59 268 l-4 222
-162 0 c-90 0 -166 -3 -169 -7z"/>
<path d="M5197 1193 c-4 -3 -7 -46 -7 -95 l0 -88 29 0 29 0 4 -157 c7 -219 31
-279 133 -328 43 -22 70 -27 127 -28 84 -1 129 15 175 62 l31 31 19 -38 18
-37 133 -3 133 -3 -3 98 -3 98 -32 3 -33 3 0 245 0 244 -180 0 -180 0 0 -95 0
-95 40 0 40 0 0 -128 c0 -116 -2 -130 -21 -151 -16 -17 -30 -21 -57 -19 -55 4
-61 33 -61 281 l-1 207 -163 0 c-90 0 -167 -3 -170 -7z"/>
<path d="M7501 1111 c-109 -38 -135 -57 -112 -85 8 -9 21 -16 30 -16 23 0 223
68 234 79 5 5 7 21 3 35 -8 34 -24 32 -155 -13z"/>
<path d="M7086 1021 c-112 -16 -136 -29 -123 -65 5 -12 19 -16 54 -16 44 0
146 13 199 25 27 6 37 30 24 56 -12 22 -9 22 -154 0z"/>
</g>
</svg>
